HIERARCHY
ROOT Hips
{
	OFFSET 0.000000 0.000000 0.000000
	CHANNELS 6 Xposition Yposition Zposition Xrotation Yrotation Zrotation
	JOINT LeftUpLeg_virtual
	{
		OFFSET 0.000000 0.000000 0.000000
		CHANNELS 3 Xrotation Yrotation Zrotation
		JOINT LeftUpLeg
		{
			OFFSET 11.394100 -6.187798 -0.413800
			CHANNELS 3 Xrotation Yrotation Zrotation
			JOINT LeftLeg
			{
				OFFSET 0.430247 -32.302673 3.732800
				CHANNELS 3 Xrotation Yrotation Zrotation
				JOINT LeftFoot
				{
					OFFSET -0.430247 -48.264931 -6.423300
					CHANNELS 3 Xrotation Yrotation Zrotation
					JOINT LeftToeBase
					{
						OFFSET 4.230900 -16.068199 23.438400
						CHANNELS 3 Xrotation Yrotation Zrotation
						JOINT LeftToe_End
						{
							OFFSET 4.510700 0.695400 19.974600
							CHANNELS 3 Xrotation Yrotation Zrotation
							End Site
							{
								OFFSET 0 0 0
							}
						}
					}
				}
			}
		}
	}
	JOINT RightUpLeg_virtual
	{
		OFFSET 0.000000 0.000000 0.000000
		CHANNELS 3 Xrotation Yrotation Zrotation
		JOINT RightUpLeg
		{
			OFFSET -11.333700 -6.187798 -0.413800
			CHANNELS 3 Xrotation Yrotation Zrotation
			JOINT RightLeg
			{
				OFFSET -0.430392 -32.302628 3.733000
				CHANNELS 3 Xrotation Yrotation Zrotation
				JOINT RightFoot
				{
					OFFSET 0.430392 -48.264973 -6.423500
					CHANNELS 3 Xrotation Yrotation Zrotation
					JOINT RightToeBase
					{
						OFFSET -4.230900 -16.068199 23.438400
						CHANNELS 3 Xrotation Yrotation Zrotation
						JOINT RightToe_End
						{
							OFFSET -4.510700 0.695400 19.974600
							CHANNELS 3 Xrotation Yrotation Zrotation
							End Site
							{
								OFFSET 0 0 0
							}
						}
					}
				}
			}
		}
	}
	JOINT Spine_virtual
	{
		OFFSET 0.000000 0.000000 0.000000
		CHANNELS 3 Xrotation Yrotation Zrotation
		JOINT Spine
		{
			OFFSET -0.002400 12.777504 0.315300
			CHANNELS 3 Xrotation Yrotation Zrotation
			JOINT Spine1
			{
				OFFSET -0.002067 5.816869 0.032633
				CHANNELS 3 Xrotation Yrotation Zrotation
				JOINT Spine1_split
				{
					OFFSET -0.002067 5.816869 0.032633
					CHANNELS 3 Xrotation Yrotation Zrotation
					JOINT Spine2
					{
						OFFSET -0.002067 5.816869 0.032633
						CHANNELS 3 Xrotation Yrotation Zrotation
						JOINT Neck_virtual
						{
							OFFSET 0.000000 0.000000 0.000000
							CHANNELS 3 Xrotation Yrotation Zrotation
							JOINT Neck
							{
								OFFSET -0.003700 21.199493 -0.826900
								CHANNELS 3 Xrotation Yrotation Zrotation
								JOINT Head
								{
									OFFSET 0.000000 20.442200 4.834800
									CHANNELS 3 Xrotation Yrotation Zrotation
									JOINT HeadTop_End
									{
										OFFSET 0.000000 34.668396 4.968400
										CHANNELS 3 Xrotation Yrotation Zrotation
										End Site
										{
											OFFSET 0 0 0
										}
									}
								}
							}
						}
						JOINT LeftShoulder_virtual
						{
							OFFSET 0.000000 0.000000 0.000000
							CHANNELS 3 Xrotation Yrotation Zrotation
							JOINT LeftShoulder
							{
								OFFSET 3.288150 8.794197 -1.372250
								CHANNELS 3 Xrotation Yrotation Zrotation
								JOINT LeftShoulder_split
								{
									OFFSET 3.288150 8.794197 -1.372250
									CHANNELS 3 Xrotation Yrotation Zrotation
									JOINT LeftArm
									{
										OFFSET 11.953299 -2.279007 -0.146200
										CHANNELS 3 Xrotation Yrotation Zrotation
										JOINT LeftForeArm
										{
											OFFSET 18.448900 0.000000 0.000000
											CHANNELS 3 Xrotation Yrotation Zrotation
											JOINT LeftHand
											{
												OFFSET 29.527798 0.000000 0.000000
												CHANNELS 3 Xrotation Yrotation Zrotation
												End Site
												{
													OFFSET 0 0 0
												}
											}
										}
									}
								}
							}
						}
						JOINT RightShoulder_virtual
						{
							OFFSET 0.000000 0.000000 0.000000
							CHANNELS 3 Xrotation Yrotation Zrotation
							JOINT RightShoulder
							{
								OFFSET -3.249400 8.794197 -1.372250
								CHANNELS 3 Xrotation Yrotation Zrotation
								JOINT RightShoulder_split
								{
									OFFSET -3.249400 8.794197 -1.372250
									CHANNELS 3 Xrotation Yrotation Zrotation
									JOINT RightArm
									{
										OFFSET -11.953299 -2.279007 -0.146200
										CHANNELS 3 Xrotation Yrotation Zrotation
										JOINT RightForeArm
										{
											OFFSET -18.448900 0.000000 0.000000
											CHANNELS 3 Xrotation Yrotation Zrotation
											JOINT RightHand
											{
												OFFSET -29.527802 0.000000 0.000000
												CHANNELS 3 Xrotation Yrotation Zrotation
												End Site
												{
													OFFSET 0 0 0
												}
											}
										}
									}
								}
							}
						}
					}
				}
			}
		}
	}
}
MOTION
Frames: 11
Frame Time: 0.03333333
-0.533962 88.998138 0.494640 0.000000 0.000000 0.000000 0.831913 -61.875517 4.478228 -34.196240 6.125173 25.331872 40.917614 -3.888571 -7.902080 -6.146834 -3.008193 -7.647957 -0.614628 0.528597 1.137566 0.000000 0.000000 0.000000 -0.597723 -60.825293 3.944353 -31.633208 -9.196688 -24.859725 39.883028 2.636212 -7.390289 -13.008764 3.436359 21.253208 3.160448 -0.503541 0.381314 0.000000 0.000000 0.000000 -0.112999 -59.619369 3.907115 11.760138 0.696973 -2.583849 9.009679 -0.820252 -5.500542 1.121604 -4.303989 1.284537 0.000000 0.000000 0.000000 10.020140 -0.527112 -5.502909 -18.564615 19.354787 13.165838 -3.599299 26.863143 -2.401061 0.000000 0.000000 0.000000 9.668333 -0.850883 -5.049450 -5.830690 -10.818106 -4.336868 -0.309883 -3.365354 -1.320320 -18.309036 8.295612 -31.386758 3.855142 -38.205414 2.736019 0.000000 0.000000 0.000000 9.222293 -0.893014 -5.496812 -6.015684 7.246266 3.370660 0.945093 0.080082 2.048782 -40.179312 -18.630456 34.281754 -161.314561 64.766982 161.786295 0.000000 0.000000 0.000000 
-0.647466 88.930916 0.905746 0.000000 0.000000 0.000000 0.683278 -62.177131 4.247933 -34.117328 6.491354 25.642151 41.160120 -4.148026 -7.877445 -6.388590 -3.043395 -7.596307 -0.598348 0.562371 1.086707 0.000000 0.000000 0.000000 -0.669675 -60.709904 3.739344 -31.297225 -9.093901 -24.618596 40.169729 2.404049 -7.315583 -13.022317 3.276133 20.896460 2.924013 -0.480059 0.453250 0.000000 0.000000 0.000000 -0.558974 -59.358606 3.372779 11.631899 0.610185 -2.633337 8.760127 -0.812697 -5.572469 0.936652 -3.306430 1.050583 0.000000 0.000000 0.000000 9.246152 -0.519440 -5.605710 -17.945917 19.149832 12.693703 -2.507721 26.237393 -1.933974 0.000000 0.000000 0.000000 9.401877 -0.863515 -5.228214 -5.716228 -10.687346 -4.635447 -0.649424 -2.538141 -1.667641 -18.429087 7.694489 -31.581955 4.082591 -38.541518 2.933549 0.000000 0.000000 0.000000 9.048571 -0.840208 -5.623739 -5.968122 7.269966 3.872592 1.172642 0.444046 2.768528 -38.749941 -18.681343 35.148270 -159.329312 66.012084 159.855755 0.000000 0.000000 0.000000 
-0.866681 89.053589 1.273422 0.000000 0.000000 0.000000 0.191789 -62.446159 3.462968 -34.039658 7.179699 26.200508 41.403586 -4.542120 -7.786456 -6.765927 -3.105656 -7.594035 -0.443033 0.656924 0.835348 0.000000 0.000000 0.000000 -1.053707 -60.672488 2.999739 -30.525796 -9.336858 -24.163268 40.010022 2.191493 -7.205281 -12.776280 3.119979 20.618739 2.382079 -0.474290 0.366875 0.000000 0.000000 0.000000 -1.056242 -59.042464 2.504372 11.276436 0.637873 -2.575438 8.103797 -0.651680 -5.712926 0.678662 -2.437801 0.735221 0.000000 0.000000 0.000000 7.989932 -0.333530 -5.812040 -16.744571 18.604009 12.310691 0.059313 23.782092 -0.389924 0.000000 0.000000 0.000000 8.737558 -0.744392 -5.475976 -5.693954 -10.451187 -4.980590 -1.415396 -1.737127 -1.848765 -18.589120 6.768386 -32.185357 3.294885 -39.088725 2.325222 0.000000 0.000000 0.000000 8.448801 -0.593798 -5.751595 -5.872391 7.067067 4.710220 1.421716 0.853780 2.413242 -37.024383 -17.870905 36.534549 -155.692564 68.413360 156.232094 0.000000 0.000000 0.000000 
-1.086998 89.375435 1.458466 0.000000 0.000000 0.000000 -0.488519 -62.563700 2.335560 -33.881147 8.026348 26.827339 41.325120 -4.970405 -7.649700 -7.008904 -3.193402 -7.723773 -0.448238 0.787645 0.503609 0.000000 0.000000 0.000000 -1.536218 -60.709617 1.991565 -29.368400 -9.903914 -23.537107 39.103830 2.040048 -7.084562 -12.322031 3.001017 20.401997 1.731131 -0.467612 0.196237 0.000000 0.000000 0.000000 -1.478359 -58.796727 1.534867 10.744458 0.788614 -2.435718 7.175221 -0.358107 -5.874500 0.471259 -1.542195 0.462600 0.000000 0.000000 0.000000 6.530726 0.025582 -6.030629 -15.421297 17.938940 11.988248 3.324355 20.268965 1.884095 0.000000 0.000000 0.000000 7.781627 -0.491350 -5.723949 -5.745723 -10.118126 -5.257733 -2.347028 -1.062945 -1.796504 -18.705634 5.704879 -33.054800 1.916834 -40.105751 1.181665 0.000000 0.000000 0.000000 7.507714 -0.213802 -5.846108 -5.688433 6.618964 5.596084 1.660151 0.969438 1.406108 -35.550267 -16.440076 38.270189 -150.182404 71.217672 150.679219 0.000000 0.000000 0.000000 
-1.234997 89.896049 1.543285 0.000000 0.000000 0.000000 -1.190423 -62.598759 1.125779 -33.592571 8.905261 27.381784 40.696535 -5.306189 -7.519509 -6.823618 -3.312921 -7.907237 -0.751293 0.908438 0.229367 0.000000 0.000000 0.000000 -1.963948 -60.781409 0.977860 -27.986866 -10.729992 -22.809683 37.409062 1.963123 -6.969569 -11.611278 2.956923 20.237027 1.314894 -0.446888 0.041656 0.000000 0.000000 0.000000 -1.633248 -58.715496 0.740100 10.139116 1.039683 -2.281481 6.137418 0.006906 -5.994712 0.429352 -1.031098 0.505467 0.000000 0.000000 0.000000 5.157499 0.463696 -6.187154 -14.713605 17.390099 11.541891 6.094921 16.695921 4.294783 0.000000 0.000000 0.000000 6.719874 -0.155475 -5.864228 -5.814029 -9.722855 -5.248208 -3.227245 -0.339505 -1.926473 -18.681833 4.796934 -34.062529 0.570268 -41.392715 0.004571 0.000000 0.000000 0.000000 6.395997 0.221933 -5.854756 -5.455019 6.033120 6.214754 1.828530 1.040922 0.553472 -34.465968 -14.708874 40.233100 -142.627778 73.905147 143.014216 0.000000 0.000000 0.000000 
-1.267402 90.577820 1.495636 0.000000 0.000000 0.000000 -1.619282 -62.636045 0.191257 -33.212966 9.673728 27.778615 39.504991 -5.479374 -7.428534 -6.107484 -3.457540 -8.026836 -1.077406 0.983955 0.034709 0.000000 0.000000 0.000000 -2.200128 -60.948087 0.170731 -26.671622 -11.682029 -22.064620 35.139141 1.947206 -6.849911 -10.620287 2.979145 20.149405 1.289770 -0.428108 -0.006105 0.000000 0.000000 0.000000 -1.539998 -58.940182 0.225274 9.601958 1.324563 -2.175640 5.153488 0.371598 -6.030689 0.316203 -1.016829 0.954093 0.000000 0.000000 0.000000 4.142217 0.896291 -6.208559 -15.191891 17.208798 10.845782 7.436432 14.111120 5.950771 0.000000 0.000000 0.000000 5.783027 0.186316 -5.844555 -5.848248 -9.259755 -4.777122 -3.784765 0.405068 -2.156352 -18.483071 3.957536 -35.227862 -0.131930 -42.738068 -0.717762 0.000000 0.000000 0.000000 5.334896 0.612883 -5.775288 -5.199015 5.444565 6.355727 2.012499 1.180477 0.105058 -33.830309 -13.102331 42.220299 -133.286620 76.085111 133.512180 0.000000 0.000000 0.000000 
-1.172024 91.275162 1.307461 0.000000 0.000000 0.000000 -1.786494 -62.774998 -0.416975 -32.815302 10.361989 28.119961 38.006775 -5.552032 -7.405851 -5.040252 -3.636771 -8.007488 -1.229629 1.004807 -0.055356 0.000000 0.000000 0.000000 -2.294856 -61.249079 -0.362168 -25.697456 -12.552894 -21.384521 32.819414 2.017608 -6.749747 -9.495469 3.081973 20.112984 1.468809 -0.413242 0.015488 0.000000 0.000000 0.000000 -1.366988 -59.322338 -0.077042 9.243391 1.600986 -2.164228 4.411575 0.680510 -5.971918 0.239761 -1.313297 1.324837 0.000000 0.000000 0.000000 3.627033 1.221809 -6.079599 -17.052486 17.548802 9.879533 7.042989 13.034467 6.221397 0.000000 0.000000 0.000000 5.125407 0.482835 -5.669717 -5.839226 -8.763206 -3.931104 -4.110068 1.021979 -2.632566 -18.151516 2.976004 -36.391132 0.218267 -43.918717 -0.621374 0.000000 0.000000 0.000000 4.499310 0.900652 -5.634434 -4.944779 5.088100 5.952525 2.195918 1.234126 0.317398 -33.479764 -11.965895 43.950819 -122.552636 77.656621 122.582484 0.000000 0.000000 0.000000 
-0.947100 91.823112 1.069614 0.000000 0.000000 0.000000 -1.829761 -63.017552 -0.808781 -32.559099 10.961526 28.498662 36.566039 -5.578307 -7.451159 -4.059823 -3.823239 -7.796501 -1.095811 0.983609 -0.046930 0.000000 0.000000 0.000000 -2.399336 -61.657777 -0.757135 -25.221191 -13.188074 -20.804461 31.079106 2.111887 -6.683690 -8.496550 3.196013 20.084492 1.639121 -0.415882 0.043249 0.000000 0.000000 0.000000 -1.271724 -59.809166 -0.338049 9.134902 1.819841 -2.234349 4.029142 0.864686 -5.832564 0.430368 -1.814794 1.505842 0.000000 0.000000 0.000000 3.617980 1.352371 -5.841673 -20.055083 18.384352 8.801256 5.045775 13.558735 5.075637 0.000000 0.000000 0.000000 4.889983 0.658742 -5.383805 -5.771722 -8.292159 -2.775741 -4.327596 1.487213 -3.298592 -17.959067 1.890239 -37.330699 1.438070 -44.435841 0.263836 0.000000 0.000000 0.000000 4.124558 1.042028 -5.458174 -4.729171 5.159244 5.051957 2.287000 1.363688 0.959714 -33.293812 -11.615366 44.972766 -112.937485 78.577092 112.749662 0.000000 0.000000 0.000000 
-0.611206 92.070084 0.717934 0.000000 0.000000 0.000000 -1.881711 -63.281757 -1.115633 -32.620898 11.355546 28.955467 35.669437 -5.674831 -7.534259 -3.498574 -4.006492 -7.544760 -0.770420 0.942292 0.048676 0.000000 0.000000 0.000000 -2.662615 -61.949256 -1.206307 -25.230333 -13.456433 -20.311565 30.425470 2.177719 -6.682385 -7.956707 3.222591 19.948612 1.710260 -0.438965 0.038909 0.000000 0.000000 0.000000 -1.537634 -60.344393 -0.801912 9.270835 1.946955 -2.328205 4.040292 0.899108 -5.662474 0.742239 -2.328268 1.482504 0.000000 0.000000 0.000000 4.047625 1.297077 -5.546641 -23.524604 19.565166 7.986592 2.105174 15.427866 2.941393 0.000000 0.000000 0.000000 5.105162 0.704116 -5.076577 -5.664829 -7.917031 -1.523225 -4.305667 1.566879 -3.774872 -18.177801 0.728476 -37.909544 2.992301 -44.251464 1.502347 0.000000 0.000000 0.000000 4.256016 1.020911 -5.304093 -4.536615 5.664076 3.837478 2.349860 1.538894 1.643928 -33.328376 -12.301409 44.924015 -109.295792 78.901717 108.895837 0.000000 0.000000 0.000000 
-0.209401 91.958420 0.319157 0.000000 0.000000 0.000000 -2.200863 -63.478002 -1.604159 -33.041873 11.465716 29.510222 35.709923 -5.924742 -7.634762 -3.414001 -4.196110 -7.359858 -0.567659 0.891222 0.223897 0.000000 0.000000 0.000000 -3.188579 -62.049940 -1.829034 -25.649841 -13.300582 -19.912660 31.040792 2.215793 -6.774242 -8.004124 3.158804 19.653103 1.700249 -0.466058 -0.008943 0.000000 0.000000 0.000000 -2.284293 -60.747764 -1.576460 9.567112 1.988420 -2.367324 4.395419 0.796191 -5.509791 0.978482 -2.595749 1.227235 0.000000 0.000000 0.000000 4.763939 1.109865 -5.280606 -26.719994 20.781172 7.671278 -0.840715 18.235331 0.544404 0.000000 0.000000 0.000000 5.670364 0.643992 -4.820696 -5.558675 -7.788054 -0.482296 -4.262579 1.326991 -4.015438 -18.786388 -0.271714 -37.938125 4.324492 -43.884068 2.629544 0.000000 0.000000 0.000000 4.771801 0.870363 -5.196860 -4.374524 6.574300 2.590075 2.292028 1.619269 2.141679 -33.692951 -14.082126 43.819990 -114.993816 78.665700 114.459388 0.000000 0.000000 0.000000 
0.185913 91.508865 -0.087818 0.000000 0.000000 0.000000 -2.818663 -63.565565 -2.312306 -33.745830 11.235820 30.069146 36.768005 -6.237722 -7.735704 -3.684144 -4.341874 -7.244161 -0.539580 0.843710 0.402717 0.000000 0.000000 0.000000 -3.950360 -61.957063 -2.637895 -26.378559 -12.768756 -19.678050 32.740737 2.255082 -6.944572 -8.568468 3.060031 19.270233 1.683736 -0.487233 -0.041258 0.000000 0.000000 0.000000 -3.312878 -61.034010 -2.525114 9.920453 1.972374 -2.291610 4.977858 0.606055 -5.398304 1.163997 -2.813916 0.965919 0.000000 0.000000 0.000000 5.595138 0.884076 -5.103483 -28.915258 21.858996 7.950579 -3.163285 21.347319 -1.458507 0.000000 0.000000 0.000000 6.430885 0.522901 -4.677253 -5.473262 -7.926071 0.165960 -4.010311 0.823616 -3.857661 -19.512228 -0.744099 -37.452284 5.088749 -43.928372 3.311045 0.000000 0.000000 0.000000 5.560031 0.648425 -5.143278 -4.227161 7.757940 1.611405 2.190037 1.504301 2.195204 -34.517806 -16.809615 41.882611 -128.285760 77.286732 127.762131 0.000000 0.000000 0.000000 
